<svg version="1.1" id="Layer_1" xmlns="http://www.w3.org/2000/svg" xmlns:xlink="http://www.w3.org/1999/xlink" x="0px" y="0px"
	 width="100%" viewBox="0 0 225 225" enable-background="new 0 0 225 225" xml:space="preserve">
<path fill="#FEFEFE" opacity="1.000000" stroke="none" 
	d="
M155.000000,226.000000 
	C103.333336,226.000000 52.166672,226.000000 1.000007,226.000000 
	C1.000005,151.000000 1.000005,76.000015 1.000002,1.000017 
	C75.999992,1.000011 150.999985,1.000011 225.999969,1.000006 
	C225.999985,75.999985 225.999985,150.999969 226.000000,225.999969 
	C202.500000,226.000000 179.000000,226.000000 155.000000,226.000000 
M198.412811,74.112442 
	C182.419144,41.861713 156.487350,23.089123 120.710625,20.230789 
	C60.784348,15.443062 13.066375,66.592873 20.769957,126.143799 
	C27.607759,179.001999 78.829262,215.898590 130.996002,205.543350 
	C190.887741,193.654694 223.141953,131.442688 198.412811,74.112442 
z"/>
<path fill="#010101" opacity="1.000000" stroke="none" 
	d="
M198.605194,74.439995 
	C223.141953,131.442688 190.887741,193.654694 130.996002,205.543350 
	C78.829262,215.898590 27.607759,179.001999 20.769957,126.143799 
	C13.066375,66.592873 60.784348,15.443062 120.710625,20.230789 
	C156.487350,23.089123 182.419144,41.861713 198.605194,74.439995 
M93.123901,79.001038 
	C94.188950,81.784836 94.553825,85.223610 96.439667,87.239624 
	C104.824478,96.203239 113.644844,104.759430 122.339806,113.495140 
	C113.514153,122.365021 104.814781,131.075089 96.155792,139.825134 
	C92.202232,143.820282 91.821030,148.058655 95.023361,151.147690 
	C98.097267,154.112854 102.165840,153.741516 105.969452,149.985382 
	C116.155701,139.926239 126.324600,129.849121 136.438110,119.716965 
	C140.963181,115.183556 140.983307,111.842003 136.493546,107.341965 
	C126.264778,97.089760 115.995453,86.877228 105.663437,76.729195 
	C101.145226,72.291451 97.241150,72.851830 93.123901,79.001038 
z"/>
<path fill="#F9F9F9" opacity="1.000000" stroke="none" 
	d="
M93.236870,78.616608 
	C97.241150,72.851830 101.145226,72.291451 105.663437,76.729195 
	C115.995453,86.877228 126.264778,97.089760 136.493546,107.341965 
	C140.983307,111.842003 140.963181,115.183556 136.438110,119.716965 
	C126.324600,129.849121 116.155701,139.926239 105.969452,149.985382 
	C102.165840,153.741516 98.097267,154.112854 95.023361,151.147690 
	C91.821030,148.058655 92.202232,143.820282 96.155792,139.825134 
	C104.814781,131.075089 113.514153,122.365021 122.339806,113.495140 
	C113.644844,104.759430 104.824478,96.203239 96.439667,87.239624 
	C94.553825,85.223610 94.188950,81.784836 93.236870,78.616608 
z"/>
</svg>