<svg version="1.1" id="Layer_1" xmlns="http://www.w3.org/2000/svg" xmlns:xlink="http://www.w3.org/1999/xlink" x="0px" y="0px"
	 width="100%" viewBox="0 0 225 225" enable-background="new 0 0 225 225" xml:space="preserve">
<path fill="#FEFEFE" opacity="1.000000" stroke="none" 
	d="
M155.000000,226.000000 
	C103.333336,226.000000 52.166672,226.000000 1.000007,226.000000 
	C1.000005,151.000000 1.000005,76.000015 1.000002,1.000017 
	C75.999992,1.000011 150.999985,1.000011 225.999969,1.000006 
	C225.999985,75.999985 225.999985,150.999969 226.000000,225.999969 
	C202.500000,226.000000 179.000000,226.000000 155.000000,226.000000 
M198.472458,74.077843 
	C182.442429,41.860607 156.509460,23.116940 120.738235,20.227045 
	C60.851780,15.388923 13.113480,66.531456 20.806637,126.114563 
	C27.889906,180.974121 82.436150,218.092804 135.856155,204.405685 
	C193.213943,189.709641 222.194687,130.046234 198.472458,74.077843 
z"/>
<path fill="#010101" opacity="1.000000" stroke="none" 
	d="
M198.654846,74.411423 
	C222.194687,130.046234 193.213943,189.709641 135.856155,204.405685 
	C82.436150,218.092804 27.889906,180.974121 20.806637,126.114563 
	C13.113480,66.531456 60.851780,15.388923 120.738235,20.227045 
	C156.509460,23.116940 182.442429,41.860607 198.654846,74.411423 
M132.866760,76.834648 
	C128.415634,72.944374 125.436310,72.718948 121.642189,76.439766 
	C111.064522,86.813087 100.543259,97.245255 90.104530,107.758255 
	C86.053520,111.838074 86.149048,115.200829 90.267342,119.404655 
	C96.091980,125.350266 102.039368,131.175827 107.946869,137.040024 
	C112.672325,141.730835 117.335533,146.488754 122.181427,151.052246 
	C125.321190,154.009048 128.960358,153.987076 131.988434,151.038757 
	C135.051743,148.056137 134.906387,144.516083 132.174789,141.206894 
	C131.330719,140.184357 130.322235,139.296738 129.381424,138.354965 
	C121.153046,130.118057 112.922928,121.882889 104.678139,113.631996 
	C113.455971,104.765274 122.077286,95.988472 130.785751,87.299026 
	C133.619217,84.471764 135.217743,81.499825 132.866760,76.834648 
z"/>
<path fill="#F8F8F8" opacity="1.000000" stroke="none" 
	d="
M133.057831,77.187683 
	C135.217743,81.499825 133.619217,84.471764 130.785751,87.299026 
	C122.077286,95.988472 113.455971,104.765274 104.678139,113.631996 
	C112.922928,121.882889 121.153046,130.118057 129.381424,138.354965 
	C130.322235,139.296738 131.330719,140.184357 132.174789,141.206894 
	C134.906387,144.516083 135.051743,148.056137 131.988434,151.038757 
	C128.960358,153.987076 125.321190,154.009048 122.181427,151.052246 
	C117.335533,146.488754 112.672325,141.730835 107.946869,137.040024 
	C102.039368,131.175827 96.091980,125.350266 90.267342,119.404655 
	C86.149048,115.200829 86.053520,111.838074 90.104530,107.758255 
	C100.543259,97.245255 111.064522,86.813087 121.642189,76.439766 
	C125.436310,72.718948 128.415634,72.944374 133.057831,77.187683 
z"/>
</svg>